<svg version="1.1" id="Layer_1" xmlns="http://www.w3.org/2000/svg" xmlns:xlink="http://www.w3.org/1999/xlink" x="0px" y="0px"
	 width="100%" viewBox="0 0 177 85" enable-background="new 0 0 177 85" xml:space="preserve">
<path fill="#000000" opacity="1.000000" stroke="none" 
	d="
M112.000000,1.000001 
	C133.885773,1.000000 155.771530,1.000000 178.000000,1.000000 
	C178.000000,7.016081 178.000000,13.038665 177.715088,19.559149 
	C177.240768,20.080734 177.051346,20.104422 176.512848,19.987114 
	C174.029953,17.184008 171.211136,16.592014 167.969254,16.956888 
	C165.994293,17.179169 163.985855,17.104052 161.540070,17.099201 
	C155.451614,17.296196 150.488708,16.197708 145.220749,13.360539 
	C138.052826,9.500121 129.819427,7.618068 121.825638,4.559128 
	C118.788643,3.798263 115.951416,3.448471 113.165497,2.856959 
	C112.667999,2.751331 112.383072,1.644527 112.000000,1.000001 
z"/>
<path fill="#010101" opacity="1.000000" stroke="none" 
	d="
M64.000000,86.000000 
	C43.113049,86.000000 22.226097,86.000000 1.000000,86.000000 
	C1.000000,79.983826 1.000000,73.961288 1.378432,67.471375 
	C2.665126,67.813644 3.573387,68.623291 5.170267,70.046776 
	C15.414946,70.158623 27.181475,68.118034 37.173256,76.601425 
	C38.474247,77.223282 39.526157,77.636429 40.611042,77.926125 
	C46.716026,79.556404 52.828945,81.156975 59.171585,83.053024 
	C60.936005,84.225571 62.468002,85.112785 64.000000,86.000000 
z"/>
<path fill="#000000" opacity="1.000000" stroke="none" 
	d="
M1.000000,20.000000 
	C1.000000,13.700650 1.000000,7.401301 1.000000,1.000000 
	C21.687462,1.000000 42.375072,1.000000 63.732483,1.386582 
	C60.587311,2.810337 56.772339,3.847511 52.554260,4.931204 
	C45.873867,7.081850 39.098125,8.313573 33.459393,11.535312 
	C27.813549,14.761108 22.376820,16.690073 15.542718,16.107761 
	C11.607829,16.039122 8.129189,16.039122 5.816272,16.039122 
	C3.679554,17.796347 2.339777,18.898174 1.000000,20.000000 
z"/>
<path fill="#000000" opacity="1.000000" stroke="none" 
	d="
M178.000000,68.000000 
	C178.000000,73.967804 178.000000,79.935608 178.000000,86.000000 
	C156.979187,86.000000 135.958252,86.000000 114.516785,85.613083 
	C115.095680,84.807114 116.064468,84.280342 117.099365,83.986069 
	C125.362122,81.636581 134.132919,80.369400 141.771240,76.723907 
	C149.610275,72.982620 157.275650,71.441696 165.715012,71.855179 
	C170.176956,72.073792 175.128830,73.150803 178.000000,68.000000 
z"/>
<path fill="#BF9C15" opacity="1.000000" stroke="none" 
	d="
M1.000000,20.449980 
	C2.339777,18.898174 3.679554,17.796347 5.816272,16.039122 
	C8.129189,16.039122 11.607829,16.039122 15.543018,16.463268 
	C16.001066,17.598427 16.002567,18.309443 15.656221,19.187824 
	C14.653844,19.450981 14.001872,19.604425 13.344380,19.633650 
	C6.639729,19.931629 4.646223,22.233734 5.885816,28.792109 
	C7.462984,37.136505 8.980696,45.427898 6.508962,53.879620 
	C5.861176,56.094631 5.398130,58.432167 5.320334,60.729347 
	C5.203250,64.186592 6.675429,66.762886 10.540292,66.914368 
	C13.353061,67.024605 16.178627,66.808388 19.423275,66.798218 
	C24.219080,68.277832 28.590099,69.696945 33.128265,71.388626 
	C34.546528,72.388702 35.797638,73.116219 37.030155,74.258751 
	C36.987507,75.227753 36.963455,75.781738 36.939404,76.335716 
	C27.181475,68.118034 15.414946,70.158623 5.170267,70.046776 
	C3.573387,68.623291 2.665126,67.813644 1.378432,67.001999 
	C1.000000,63.969406 1.000000,60.938816 1.387689,57.664600 
	C4.381746,50.144222 5.617530,42.734810 3.521667,35.118904 
	C2.940708,33.007828 1.854435,31.035814 1.000000,29.000000 
	C1.000000,26.299986 1.000000,23.599974 1.000000,20.449980 
z"/>
<path fill="#393635" opacity="1.000000" stroke="none" 
	d="
M178.000000,67.535355 
	C175.128830,73.150803 170.176956,72.073792 165.715012,71.855179 
	C157.275650,71.441696 149.610275,72.982620 141.771240,76.723907 
	C134.132919,80.369400 125.362122,81.636581 117.099365,83.986069 
	C116.064468,84.280342 115.095680,84.807114 114.048126,85.613083 
	C103.979103,86.000000 93.958214,86.000000 83.467865,85.779022 
	C82.998413,85.558044 82.995827,85.116089 83.460190,85.064781 
	C101.813622,84.943031 119.390213,82.938850 136.620300,76.456551 
	C147.203171,70.193085 158.346756,68.767998 170.000381,69.889832 
	C170.980270,69.984169 171.988632,69.782768 173.299042,69.563797 
	C174.181015,66.887428 175.640976,64.183105 175.168228,61.874577 
	C172.280197,47.772068 173.020813,33.910267 176.861923,20.128111 
	C177.051346,20.104422 177.240768,20.080734 177.715088,20.028524 
	C178.000000,24.689257 178.000000,29.378511 177.608719,34.587212 
	C176.617157,39.348915 175.658920,43.583866 175.572052,47.836620 
	C175.530426,49.873695 177.138870,51.944481 178.000000,54.000000 
	C178.000000,58.356899 178.000000,62.713802 178.000000,67.535355 
z"/>
<path fill="#B8A604" opacity="1.000000" stroke="none" 
	d="
M52.957367,4.884685 
	C56.772339,3.847511 60.587311,2.810337 64.201141,1.386582 
	C79.687561,1.000000 95.375122,1.000000 111.531342,1.000001 
	C112.383072,1.644527 112.667999,2.751331 113.165497,2.856959 
	C115.951416,3.448471 118.788643,3.798263 121.802681,5.001307 
	C121.958374,6.361145 121.919746,6.950283 121.525726,7.471137 
	C120.451675,7.352323 119.733009,7.301792 118.645935,7.133931 
	C116.518806,6.716773 114.760101,6.416945 112.593506,6.027448 
	C97.113327,3.643763 82.047180,2.784970 66.558899,6.053578 
	C61.787540,6.520304 57.456364,7.065163 53.092690,7.156087 
	C53.025913,6.096330 52.991642,5.490508 52.957367,4.884685 
z"/>
<path fill="#000000" opacity="1.000000" stroke="none" 
	d="
M1.000000,29.468657 
	C1.854435,31.035814 2.940708,33.007828 3.521667,35.118904 
	C5.617530,42.734810 4.381746,50.144222 1.387689,57.210487 
	C1.000000,47.979103 1.000000,38.958210 1.000000,29.468657 
z"/>
<path fill="#000000" opacity="1.000000" stroke="none" 
	d="
M178.000000,53.531731 
	C177.138870,51.944481 175.530426,49.873695 175.572052,47.836620 
	C175.658920,43.583866 176.617157,39.348915 177.608719,35.053326 
	C178.000000,41.021152 178.000000,47.042305 178.000000,53.531731 
z"/>
<path fill="#353236" opacity="1.000000" stroke="none" 
	d="
M82.995827,85.116089 
	C82.995827,85.116089 82.998413,85.558044 82.999207,85.779022 
	C76.978844,86.000000 70.957695,86.000000 64.468269,86.000000 
	C62.468002,85.112785 60.936005,84.225571 59.628757,82.987534 
	C67.567612,83.463158 75.281723,84.289619 82.995827,85.116089 
z"/>
<path fill="#B79615" opacity="1.000000" stroke="none" 
	d="
M176.512848,19.987114 
	C173.020813,33.910267 172.280197,47.772068 175.168228,61.874577 
	C175.640976,64.183105 174.181015,66.887428 173.299454,69.153511 
	C172.982391,67.245880 172.980179,65.593567 172.976288,63.528526 
	C170.532028,50.871494 169.302582,38.668411 172.606186,26.303473 
	C173.553925,22.756231 170.494110,20.916454 167.419113,20.109556 
	C165.698639,19.658092 163.798584,19.890921 161.983582,19.483810 
	C161.989288,18.488981 161.990875,17.825748 161.992462,17.162518 
	C163.985855,17.104052 165.994293,17.179169 167.969254,16.956888 
	C171.211136,16.592014 174.029953,17.184008 176.512848,19.987114 
z"/>
<path fill="#BCA20B" opacity="1.000000" stroke="none" 
	d="
M161.540085,17.099201 
	C161.990875,17.825748 161.989288,18.488981 161.587418,19.534597 
	C160.125015,19.986349 159.062897,20.055716 157.562714,20.069401 
	C153.520432,19.294296 149.916229,18.574875 146.081589,17.589180 
	C137.861145,14.061742 129.871124,10.800579 121.881119,7.539419 
	C121.919746,6.950283 121.958374,6.361145 122.019966,5.329829 
	C129.819427,7.618068 138.052826,9.500121 145.220749,13.360539 
	C150.488708,16.197708 155.451614,17.296196 161.540085,17.099201 
z"/>
<path fill="#B2A009" opacity="1.000000" stroke="none" 
	d="
M83.460190,85.064781 
	C75.281723,84.289619 67.567612,83.463158 59.396332,82.702187 
	C52.828945,81.156975 46.716026,79.556404 40.611042,77.926125 
	C39.526157,77.636429 38.474247,77.223282 37.173256,76.601425 
	C36.963455,75.781738 36.987507,75.227753 37.399456,74.323349 
	C43.180820,75.370293 48.574287,76.767670 54.290222,78.364426 
	C60.409115,79.371689 66.205544,80.179581 72.414131,81.069557 
	C83.546562,81.054871 94.266823,80.958099 105.409485,80.889450 
	C111.881531,79.799950 117.931175,78.682320 124.353188,77.587997 
	C128.033752,76.699089 131.341934,75.786888 134.968231,75.103096 
	C135.610687,75.739883 135.935013,76.148270 136.259354,76.556648 
	C119.390213,82.938850 101.813622,84.943031 83.460190,85.064781 
z"/>
<path fill="#BB9F0E" opacity="1.000000" stroke="none" 
	d="
M52.554260,4.931204 
	C52.991642,5.490508 53.025913,6.096330 52.813316,7.285298 
	C51.377293,8.295693 50.188133,8.722941 48.628304,9.173265 
	C42.841187,11.514512 37.424744,13.832685 31.665600,16.262108 
	C27.222399,20.222898 21.971142,18.730692 16.895071,19.312773 
	C16.401831,19.145126 16.202948,19.082792 16.004066,19.020456 
	C16.002567,18.309443 16.001066,17.598427 15.999268,16.531906 
	C22.376820,16.690073 27.813549,14.761108 33.459393,11.535312 
	C39.098125,8.313573 45.873867,7.081850 52.554260,4.931204 
z"/>
<path fill="#BD281A" opacity="1.000000" stroke="none" 
	d="
M17.189430,19.418087 
	C21.971142,18.730692 27.222399,20.222898 31.686760,16.665030 
	C32.365788,21.124664 32.680954,25.292631 32.584663,29.693489 
	C33.118477,39.613148 34.063747,49.299919 35.000225,59.425659 
	C34.941051,60.741119 34.890667,61.617599 34.547607,62.596786 
	C33.853867,62.628387 33.452808,62.557285 32.955341,62.327511 
	C32.633331,62.313961 32.407726,62.459084 32.048225,62.880760 
	C31.921328,63.561485 31.928328,63.965656 32.011841,64.522858 
	C32.379044,64.661545 32.669731,64.647194 33.405045,64.486160 
	C37.899731,64.399506 41.949783,64.459534 45.805847,64.831390 
	C43.387722,65.425789 41.148579,66.025284 38.942780,65.920799 
	C35.101360,65.738831 32.915283,67.029694 32.961117,71.116066 
	C28.590099,69.696945 24.219080,68.277832 19.423656,66.352058 
	C18.999512,52.303310 19.071583,38.760414 18.919455,25.220039 
	C18.897655,23.279821 17.792963,21.351768 17.189430,19.418087 
z"/>
<path fill="#C62718" opacity="1.000000" stroke="none" 
	d="
M16.895071,19.312773 
	C17.792963,21.351768 18.897655,23.279821 18.919455,25.220039 
	C19.071583,38.760414 18.999512,52.303310 18.998871,66.291557 
	C16.178627,66.808388 13.353061,67.024605 10.540292,66.914368 
	C6.675429,66.762886 5.203250,64.186592 5.320334,60.729347 
	C5.398130,58.432167 5.861176,56.094631 6.508962,53.879620 
	C8.980696,45.427898 7.462984,37.136505 5.885816,28.792109 
	C4.646223,22.233734 6.639729,19.931629 13.344380,19.633650 
	C14.001872,19.604425 14.653844,19.450981 15.656221,19.187824 
	C16.202948,19.082792 16.401831,19.145126 16.895071,19.312773 
z"/>
<path fill="#B12616" opacity="1.000000" stroke="none" 
	d="
M33.128265,71.388626 
	C32.915283,67.029694 35.101360,65.738831 38.942780,65.920799 
	C41.148579,66.025284 43.387722,65.425789 46.251831,64.734535 
	C49.928410,64.390755 52.965008,64.455643 55.851582,64.839203 
	C55.123623,69.493591 54.545692,73.829323 53.967758,78.165047 
	C48.574287,76.767670 43.180820,75.370293 37.418049,73.908325 
	C35.797638,73.116219 34.546528,72.388702 33.128265,71.388626 
z"/>
<path fill="#B8A00E" opacity="1.000000" stroke="none" 
	d="
M136.620300,76.456551 
	C135.935013,76.148270 135.610687,75.739883 135.255310,74.874680 
	C138.155685,72.973175 141.087097,71.528503 144.378510,70.007111 
	C149.158417,68.925400 153.578308,67.920395 158.455444,66.966751 
	C162.699539,66.654732 166.486404,66.291359 170.424332,65.758728 
	C170.725037,65.166985 170.874649,64.744507 171.346786,64.243454 
	C172.105515,64.090332 172.541748,64.015785 172.977966,63.941246 
	C172.980179,65.593567 172.982391,67.245880 172.984177,69.308487 
	C171.988632,69.782768 170.980270,69.984169 170.000381,69.889832 
	C158.346756,68.767998 147.203171,70.193085 136.620300,76.456551 
z"/>
<path fill="#AD271A" opacity="1.000000" stroke="none" 
	d="
M34.840286,62.494087 
	C34.890667,61.617599 34.941051,60.741119 35.452030,59.423214 
	C38.680809,58.981792 41.448990,58.981792 44.219391,58.981792 
	C44.873726,55.070496 45.438595,51.693962 46.216637,47.043201 
	C47.298641,52.067364 48.064972,55.625721 48.760941,58.857384 
	C52.465729,58.857384 55.356503,58.857384 58.456997,58.857384 
	C59.559853,49.042934 60.622086,39.589996 61.682690,30.151548 
	C53.619785,29.085381 53.153145,29.536797 53.245342,36.895168 
	C53.266720,38.601429 52.776920,40.314098 52.522335,42.023819 
	C51.994370,41.960438 51.466408,41.897053 50.938446,41.833672 
	C50.938446,39.736805 51.190048,37.600368 50.868210,35.554123 
	C50.541580,33.477398 49.648891,31.489702 49.002762,29.028156 
	C49.000603,22.112263 48.999790,15.631227 48.998974,9.150190 
	C50.188133,8.722941 51.377293,8.295693 52.845821,7.739233 
	C57.456364,7.065163 61.787540,6.520304 66.558884,6.457488 
	C66.995483,8.561289 66.991905,10.183046 66.699356,11.998472 
	C63.635288,14.181999 60.860180,16.171856 57.957047,18.371365 
	C57.605717,18.842506 57.323952,18.998161 56.661446,19.084972 
	C55.549255,20.413925 54.759338,21.705887 54.206757,23.224504 
	C55.997307,22.504190 57.550518,21.557224 59.504890,20.558525 
	C62.935436,21.395546 65.964813,22.284302 68.901062,23.490044 
	C68.195824,25.650095 67.583725,27.493156 66.582153,29.496555 
	C65.551308,31.558289 64.619225,33.415115 64.319679,35.368919 
	C63.122124,43.180115 62.121105,51.021442 61.057396,59.211369 
	C61.053371,60.530453 61.039322,61.489788 60.571259,62.577438 
	C51.691593,62.635197 43.265938,62.564640 34.840286,62.494087 
z"/>
<path fill="#B22416" opacity="1.000000" stroke="none" 
	d="
M121.525726,7.471135 
	C129.871124,10.800579 137.861145,14.061742 145.694366,17.706371 
	C141.108215,21.219810 143.693436,25.845577 142.604370,29.709930 
	C139.825821,29.842110 137.487289,30.046024 134.830902,29.977768 
	C133.697021,29.587399 132.880966,29.469200 131.713104,29.448118 
	C129.173767,29.699715 126.986221,29.854197 124.341446,30.013664 
	C122.667442,30.091780 121.450668,30.164909 120.032669,30.089512 
	C119.568390,29.736057 119.305351,29.531132 119.032440,28.982601 
	C118.332268,27.089180 117.641968,25.539368 116.967209,23.701498 
	C116.992851,23.028927 117.002960,22.644415 117.253716,22.114174 
	C117.814377,21.775570 118.134399,21.582691 118.734222,21.368742 
	C119.693359,21.135090 120.372696,20.922508 121.590637,20.541378 
	C120.291740,19.970232 119.582649,19.658438 118.899399,18.867104 
	C118.954933,14.675464 118.984642,10.963363 119.014343,7.251261 
	C119.733009,7.301792 120.451675,7.352323 121.525726,7.471135 
z"/>
<path fill="#A22815" opacity="1.000000" stroke="none" 
	d="
M66.988319,11.804803 
	C66.991905,10.183046 66.995483,8.561289 66.999069,6.535623 
	C82.047180,2.784970 97.113327,3.643763 112.595131,6.480561 
	C112.995262,10.730131 112.985893,14.436918 112.576721,18.127682 
	C106.515846,16.262115 100.818687,14.515148 95.201790,12.539943 
	C85.854065,9.252773 76.488373,8.402136 66.988319,11.804803 
z"/>
<path fill="#AF2E20" opacity="1.000000" stroke="none" 
	d="
M112.976517,18.143705 
	C112.985893,14.436918 112.995262,10.730131 113.003006,6.570230 
	C114.760101,6.416945 116.518806,6.716773 118.645935,7.133931 
	C118.984642,10.963363 118.954933,14.675464 118.513565,18.855865 
	C116.393448,18.930679 114.684982,18.537193 112.976517,18.143705 
z"/>
<path fill="#C82518" opacity="1.000000" stroke="none" 
	d="
M172.976288,63.528526 
	C172.541748,64.015785 172.105515,64.090332 171.101746,64.326279 
	C170.447205,64.967789 170.360229,65.447884 170.273254,65.927979 
	C166.486404,66.291359 162.699539,66.654732 158.456085,66.505386 
	C157.999908,50.703472 158.000336,35.414280 158.000778,20.125084 
	C159.062897,20.055716 160.125015,19.986349 161.583282,19.866196 
	C163.798584,19.890921 165.698639,19.658092 167.419113,20.109556 
	C170.494110,20.916454 173.553925,22.756231 172.606186,26.303473 
	C169.302582,38.668411 170.532028,50.871494 172.976288,63.528526 
z"/>
<path fill="#BE2417" opacity="1.000000" stroke="none" 
	d="
M157.562714,20.069401 
	C158.000336,35.414280 157.999908,50.703472 157.998840,66.454033 
	C153.578308,67.920395 149.158417,68.925400 144.373596,69.598427 
	C144.005280,68.179314 144.001892,67.092171 143.910629,65.849152 
	C143.681152,65.493889 143.494781,65.354408 143.196548,65.088814 
	C143.129501,64.902802 143.002213,64.528397 143.292435,64.403519 
	C143.713135,63.696457 143.843613,63.114265 143.965546,62.185509 
	C143.912735,60.921642 143.868484,60.004330 144.105255,58.768879 
	C144.565247,49.674564 144.786530,40.898674 144.845016,32.121693 
	C144.849823,31.399244 143.748703,30.669424 143.091064,29.932526 
	C143.020660,29.922022 143.044388,29.781666 143.044388,29.781666 
	C143.693436,25.845577 141.108215,21.219810 145.924805,17.972647 
	C149.916229,18.574875 153.520432,19.294296 157.562714,20.069401 
z"/>
<path fill="#A02315" opacity="1.000000" stroke="none" 
	d="
M104.987091,80.861328 
	C94.266823,80.958099 83.546562,81.054871 72.413437,80.604164 
	C72.000900,74.878372 72.001213,69.700066 72.451965,64.427521 
	C75.978004,64.408203 79.053604,64.483116 82.289078,64.660583 
	C82.922005,64.694450 83.395065,64.625763 84.332420,64.444199 
	C91.197144,64.394508 97.597557,64.457680 103.999039,64.954071 
	C104.329102,70.545296 104.658096,75.703308 104.987091,80.861328 
z"/>
<path fill="#A92516" opacity="1.000000" stroke="none" 
	d="
M105.409485,80.889450 
	C104.658096,75.703308 104.329102,70.545296 104.458092,64.855988 
	C110.943619,64.389977 116.971161,64.455254 123.102440,64.889481 
	C123.464394,69.360519 123.722610,73.462601 123.980820,77.564697 
	C117.931175,78.682320 111.881531,79.799950 105.409485,80.889450 
z"/>
<path fill="#A72416" opacity="1.000000" stroke="none" 
	d="
M72.001518,64.521759 
	C72.001213,69.700066 72.000900,74.878372 72.001282,80.522079 
	C66.205544,80.179581 60.409115,79.371689 54.290222,78.364426 
	C54.545692,73.829323 55.123623,69.493591 56.309860,64.744614 
	C61.945950,64.394829 66.973732,64.458290 72.001518,64.521759 
z"/>
<path fill="#B32516" opacity="1.000000" stroke="none" 
	d="
M124.353195,77.587997 
	C123.722610,73.462601 123.464394,69.360519 123.561661,64.791855 
	C130.278839,64.392990 136.640518,64.460693 143.002213,64.528397 
	C143.002213,64.528397 143.129501,64.902802 143.276215,65.244492 
	C143.584229,65.767731 143.776093,65.907349 143.998520,66.005028 
	C144.001892,67.092171 144.005280,68.179314 144.013580,69.675140 
	C141.087097,71.528503 138.155685,72.973175 134.937195,74.646271 
	C131.341934,75.786888 128.033752,76.699089 124.353195,77.587997 
z"/>
<path fill="#B22518" opacity="1.000000" stroke="none" 
	d="
M48.628304,9.173265 
	C48.999790,15.631227 49.000603,22.112263 48.569237,29.099110 
	C37.821503,28.696859 42.509155,37.276741 39.901321,41.726440 
	C39.445713,37.782711 38.990105,33.838982 38.527622,29.835760 
	C36.591228,29.704428 34.793674,29.582514 32.996120,29.460598 
	C32.680954,25.292631 32.365788,21.124664 32.029457,16.553776 
	C37.424744,13.832685 42.841187,11.514512 48.628304,9.173265 
z"/>
<path fill="#FCF7F7" opacity="1.000000" stroke="none" 
	d="
M32.584663,29.693489 
	C34.793674,29.582514 36.591228,29.704428 38.527622,29.835760 
	C38.990105,33.838982 39.445713,37.782711 39.901321,41.726440 
	C42.509155,37.276741 37.821503,28.696859 48.570583,29.533970 
	C49.648891,31.489702 50.541580,33.477398 50.868210,35.554123 
	C51.190048,37.600368 50.938446,39.736805 50.938446,41.833672 
	C51.466408,41.897053 51.994370,41.960438 52.522335,42.023819 
	C52.776920,40.314098 53.266720,38.601429 53.245342,36.895168 
	C53.153145,29.536797 53.619785,29.085381 61.682690,30.151548 
	C60.622086,39.589996 59.559853,49.042934 58.456997,58.857384 
	C55.356503,58.857384 52.465729,58.857384 48.760941,58.857384 
	C48.064972,55.625721 47.298641,52.067364 46.216637,47.043201 
	C45.438595,51.693962 44.873726,55.070496 44.219391,58.981792 
	C41.448990,58.981792 38.680809,58.981792 35.460819,58.984238 
	C34.063747,49.299919 33.118477,39.613148 32.584663,29.693489 
z"/>
<path fill="#FFFFFE" opacity="1.000000" stroke="none" 
	d="
M143.292435,64.403519 
	C136.640518,64.460693 130.278839,64.392990 123.457932,64.422905 
	C116.971161,64.455254 110.943619,64.389977 104.457031,64.422775 
	C97.597557,64.457680 91.197144,64.394508 84.050293,64.329346 
	C82.912300,64.404243 82.520752,64.481133 82.129196,64.558029 
	C79.053604,64.483116 75.978004,64.408203 72.451965,64.427521 
	C66.973732,64.458290 61.945950,64.394829 56.459885,64.425949 
	C52.965008,64.455643 49.928410,64.390755 46.445824,64.422714 
	C41.949783,64.459534 37.899731,64.399506 33.161919,64.369186 
	C32.294552,64.389206 32.114941,64.379517 31.935329,64.369827 
	C31.928328,63.965656 31.921328,63.561485 32.274353,62.915962 
	C32.634380,62.674614 33.051746,62.486183 33.051746,62.486183 
	C33.452808,62.557285 33.853867,62.628387 34.547607,62.596790 
	C43.265938,62.564640 51.691593,62.635197 61.027542,62.682693 
	C74.613777,62.597591 87.289711,62.535545 100.302757,62.593971 
	C101.103104,62.633537 101.566345,62.552631 102.462105,62.569099 
	C105.248482,62.593143 107.602333,62.519810 110.293350,62.570148 
	C111.094543,62.610897 111.558586,62.527977 112.440323,62.551865 
	C114.566872,62.567616 116.275726,62.476551 118.300194,62.515697 
	C119.062263,62.587517 119.508705,62.529125 120.299561,62.593716 
	C121.117279,62.634251 121.590591,62.551804 122.485611,62.566063 
	C124.924286,62.596870 126.941246,62.530975 129.380371,62.593510 
	C131.554886,62.635036 133.307236,62.548138 135.495453,62.558319 
	C138.612228,62.614292 141.293152,62.573181 143.974091,62.532070 
	C143.843613,63.114265 143.713135,63.696457 143.292435,64.403519 
z"/>
<path fill="#AB1406" opacity="1.000000" stroke="none" 
	d="
M32.011841,64.522858 
	C32.114941,64.379517 32.294552,64.389206 32.717293,64.515877 
	C32.669731,64.647194 32.379044,64.661545 32.011841,64.522858 
z"/>
<path fill="#AD271A" opacity="1.000000" stroke="none" 
	d="
M32.955341,62.327511 
	C33.051746,62.486183 32.634380,62.674614 32.408253,62.639412 
	C32.407726,62.459084 32.633331,62.313961 32.955341,62.327511 
z"/>
<path fill="#B79615" opacity="1.000000" stroke="none" 
	d="
M170.424332,65.758720 
	C170.360229,65.447884 170.447205,64.967789 170.779236,64.404861 
	C170.874649,64.744507 170.725037,65.166985 170.424332,65.758720 
z"/>
<path fill="#FCF8F7" opacity="1.000000" stroke="none" 
	d="
M61.047371,58.851620 
	C62.121105,51.021442 63.122124,43.180115 64.319679,35.368919 
	C64.619225,33.415115 65.551308,31.558289 67.024033,29.629549 
	C72.791451,29.031017 77.177162,29.392065 77.835312,35.735722 
	C78.016769,37.484692 78.016022,39.252571 78.049538,41.432556 
	C78.721313,47.483242 79.442436,53.113148 80.177467,58.851620 
	C73.259079,58.851620 67.153221,58.851620 61.047371,58.851620 
z"/>
<path fill="#A52B1F" opacity="1.000000" stroke="none" 
	d="
M78.098885,41.011772 
	C78.016022,39.252571 78.016769,37.484692 77.835312,35.735722 
	C77.177162,29.392065 72.791451,29.031017 67.413498,29.469215 
	C67.583725,27.493156 68.195824,25.650095 69.288864,23.480213 
	C77.239212,24.099104 84.687347,25.354801 92.186333,25.869230 
	C96.393585,26.157852 100.684975,25.220148 105.137115,25.064625 
	C106.217979,24.946539 107.100189,24.598789 108.372322,24.132683 
	C109.836098,23.856163 110.909935,23.698000 111.998680,23.909960 
	C112.024437,24.525723 112.035286,24.771364 112.045410,25.364927 
	C112.947205,26.815393 113.849724,27.917938 114.783707,29.102604 
	C114.815170,29.184725 114.895294,29.341291 114.500412,29.478535 
	C113.398674,32.409763 112.691803,35.203754 111.694382,37.993660 
	C111.016380,37.990154 110.628929,37.990730 110.168365,37.537453 
	C110.095253,34.666435 110.095253,32.249279 110.095253,30.031822 
	C107.160522,30.031822 104.937660,30.031822 102.101776,30.031822 
	C102.101776,39.810192 102.101776,49.209633 102.099998,58.995903 
	C102.075340,60.412395 102.052460,61.442062 102.029572,62.471725 
	C101.566345,62.552631 101.103104,62.633537 100.288879,62.314720 
	C99.641029,61.051136 99.344162,60.187267 99.229034,58.864567 
	C99.410774,53.505920 99.410774,48.606110 99.410774,43.627182 
	C96.148003,43.627182 93.582962,43.627182 90.713165,43.627182 
	C90.713165,47.381775 90.713165,50.829582 90.761887,54.266647 
	C90.810616,54.255901 90.855949,54.344799 90.508965,54.117401 
	C88.205666,47.281624 89.499588,40.776451 89.394005,34.226841 
	C90.034767,34.210827 90.675529,34.194813 91.316292,34.178799 
	C91.630577,36.178844 91.944870,38.178890 92.249512,40.117538 
	C94.722984,40.117538 96.930855,40.117538 99.151077,40.117538 
	C98.566978,29.341648 96.353722,28.121492 82.129807,30.521355 
	C81.714127,33.970722 81.289673,37.492870 80.519592,41.001961 
	C79.482269,40.996525 78.790581,41.004147 78.098885,41.011772 
z"/>
<path fill="#069336" opacity="1.000000" stroke="none" 
	d="
M104.938454,24.834957 
	C100.684975,25.220148 96.393585,26.157852 92.186333,25.869230 
	C84.687347,25.354801 77.239212,24.099104 69.382004,23.163225 
	C65.964813,22.284302 62.935436,21.395546 59.231033,20.524986 
	C58.022629,20.402206 57.489250,20.261230 56.961060,19.852140 
	C56.972069,19.405344 56.977894,19.226664 56.983723,19.047981 
	C57.323952,18.998161 57.605717,18.842506 58.356590,18.331490 
	C68.398254,14.889244 78.088348,14.394685 87.940292,16.121567 
	C98.107117,17.903641 108.282684,19.635813 118.454430,21.389814 
	C118.134399,21.582691 117.814377,21.775570 116.975609,22.098169 
	C115.961006,22.461611 115.465157,22.695332 114.659348,22.918941 
	C113.560860,23.119167 112.772316,23.329502 111.983780,23.539837 
	C110.909935,23.698000 109.836098,23.856163 108.056770,24.099409 
	C106.547012,24.401314 105.742729,24.618135 104.938454,24.834957 
z"/>
<path fill="#83BF0E" opacity="1.000000" stroke="none" 
	d="
M118.734222,21.368744 
	C108.282684,19.635813 98.107117,17.903641 87.940292,16.121567 
	C78.088348,14.394685 68.398254,14.889244 58.484619,18.121838 
	C60.860180,16.171856 63.635288,14.181999 66.699356,11.998472 
	C76.488373,8.402136 85.854065,9.252773 95.201790,12.539943 
	C100.818687,14.515148 106.515846,16.262115 112.576729,18.127682 
	C114.684982,18.537193 116.393448,18.930679 118.487732,19.335403 
	C119.582649,19.658438 120.291740,19.970232 121.590637,20.541378 
	C120.372696,20.922508 119.693359,21.135090 118.734222,21.368744 
z"/>
<path fill="#9D170A" opacity="1.000000" stroke="none" 
	d="
M99.047302,59.323402 
	C99.344162,60.187267 99.641029,61.051136 99.951767,62.194252 
	C87.289711,62.535545 74.613777,62.597591 61.481560,62.554382 
	C61.039322,61.489788 61.053371,60.530453 61.057396,59.211369 
	C67.153221,58.851620 73.259079,58.851620 80.177467,58.851620 
	C79.442436,53.113148 78.721313,47.483242 78.049538,41.432552 
	C78.790581,41.004147 79.482269,40.996525 80.577133,41.462257 
	C80.991020,45.424160 80.892807,48.917324 81.040520,52.400059 
	C81.217804,56.580078 85.840637,60.390087 89.828552,59.968227 
	C92.889954,59.644379 95.973564,59.530605 99.047302,59.323402 
z"/>
<path fill="#AA3022" opacity="1.000000" stroke="none" 
	d="
M56.955868,20.120255 
	C57.489250,20.261230 58.022629,20.402206 58.829868,20.576721 
	C57.550518,21.557224 55.997307,22.504190 54.472404,23.081770 
	C55.319096,21.848339 56.137482,20.984297 56.955868,20.120255 
z"/>
<path fill="#AA2716" opacity="1.000000" stroke="none" 
	d="
M56.961060,19.852140 
	C56.137482,20.984297 55.319096,21.848339 54.235065,22.855116 
	C54.759338,21.705887 55.549255,20.413925 56.661446,19.084972 
	C56.977894,19.226664 56.972069,19.405344 56.961060,19.852140 
z"/>
<path fill="#FAF3F3" opacity="1.000000" stroke="none" 
	d="
M111.984940,37.997742 
	C112.691803,35.203754 113.398674,32.409763 114.904091,29.606400 
	C116.815865,29.506750 117.929092,29.416479 119.042313,29.326206 
	C119.305351,29.531132 119.568390,29.736057 119.983055,30.539574 
	C120.181496,37.534489 120.228302,43.930817 120.195908,50.756275 
	C120.952896,51.593533 121.789085,52.001652 123.141525,52.004581 
	C123.427872,51.227146 123.197968,50.854908 122.913239,50.731552 
	C122.890800,51.486282 122.923195,51.992126 122.390640,52.340057 
	C121.869102,52.809040 121.912506,53.435944 121.996117,54.054901 
	C122.036331,54.046959 122.037659,53.964993 121.777405,53.462875 
	C121.018608,55.004490 120.520065,57.048225 119.682281,59.187088 
	C118.890564,59.390156 118.438072,59.498096 117.572159,59.482864 
	C115.473976,59.119137 113.789223,58.878582 112.203850,58.206711 
	C112.303238,54.202374 112.303238,50.629345 112.303238,47.056320 
	C111.546089,47.048565 110.788948,47.040810 110.031799,47.033054 
	C110.031799,51.069172 110.031799,55.105286 109.589134,59.212704 
	C106.798241,59.059029 104.450005,58.834049 102.101776,58.609070 
	C102.101776,49.209633 102.101776,39.810192 102.101776,30.031822 
	C104.937660,30.031822 107.160522,30.031822 110.095253,30.031822 
	C110.095253,32.249279 110.095253,34.666435 110.097260,37.909817 
	C110.578484,39.146877 111.057701,39.557720 111.536911,39.968559 
	C111.686256,39.311619 111.835594,38.654678 111.984940,37.997742 
z"/>
<path fill="#F9EEED" opacity="1.000000" stroke="none" 
	d="
M122.955582,52.497971 
	C122.923195,51.992126 122.890800,51.486282 123.339340,51.067738 
	C124.156868,49.656673 124.754402,48.163342 124.783401,46.659042 
	C124.890343,41.110886 124.809135,35.559097 124.798683,30.008678 
	C126.986221,29.854197 129.173767,29.699715 131.911682,29.852119 
	C132.274780,39.287987 132.087494,48.416969 131.679733,57.625870 
	C130.629715,58.228394 129.800201,58.750999 128.534103,59.258804 
	C126.057259,59.199764 124.016991,59.155525 121.962242,58.681984 
	C121.977722,56.823456 122.007690,55.394226 122.037659,53.964993 
	C122.037659,53.964993 122.036331,54.046959 122.426598,54.039642 
	C123.214973,53.589409 123.613091,53.146496 124.011200,52.703583 
	C123.659325,52.635048 123.307457,52.566509 122.955582,52.497971 
z"/>
<path fill="#FAF1F1" opacity="1.000000" stroke="none" 
	d="
M135.148758,30.249941 
	C137.487289,30.046024 139.825821,29.842110 142.604370,29.709930 
	C143.044388,29.781666 143.020660,29.922022 143.091614,30.404865 
	C143.166702,40.274460 143.170853,49.661209 142.732803,59.166756 
	C139.906113,59.065289 137.521591,58.845024 135.217072,58.473465 
	C135.297073,58.322174 135.105255,58.038692 135.202316,57.576176 
	C135.249176,48.159088 135.198959,39.204514 135.148758,30.249941 
z"/>
<path fill="#AA1B0D" opacity="1.000000" stroke="none" 
	d="
M124.341446,30.013662 
	C124.809135,35.559097 124.890343,41.110886 124.783401,46.659042 
	C124.754402,48.163342 124.156868,49.656673 123.394173,50.818855 
	C123.197968,50.854908 123.427872,51.227146 122.702118,51.301060 
	C121.256004,50.777534 120.765556,50.552341 120.275108,50.327141 
	C120.228302,43.930817 120.181496,37.534489 120.184296,30.688103 
	C121.450668,30.164909 122.667442,30.091780 124.341446,30.013662 
z"/>
<path fill="#AE1406" opacity="1.000000" stroke="none" 
	d="
M134.830902,29.977768 
	C135.198959,39.204514 135.249176,48.159088 134.812363,57.441818 
	C133.516968,57.695297 132.708588,57.620625 131.900208,57.545952 
	C132.087494,48.416969 132.274780,39.287987 132.263489,29.755005 
	C132.880966,29.469200 133.697021,29.587399 134.830902,29.977768 
z"/>
<path fill="#AF2E20" opacity="1.000000" stroke="none" 
	d="
M119.032440,28.982601 
	C117.929092,29.416479 116.815865,29.506750 115.298965,29.469158 
	C114.895294,29.341291 114.815170,29.184725 114.845795,28.751198 
	C113.932991,27.217451 112.989571,26.117229 112.046143,25.017008 
	C112.035286,24.771364 112.024437,24.525723 111.998680,23.909958 
	C112.772316,23.329502 113.560860,23.119167 114.849701,23.140316 
	C115.883888,23.577719 116.417778,23.783636 116.951668,23.989553 
	C117.641968,25.539368 118.332268,27.089180 119.032440,28.982601 
z"/>
<path fill="#AA3021" opacity="1.000000" stroke="none" 
	d="
M116.967209,23.701496 
	C116.417778,23.783636 115.883888,23.577719 115.159653,23.150427 
	C115.465157,22.695332 115.961006,22.461611 116.734970,22.243896 
	C117.002960,22.644415 116.992851,23.028927 116.967209,23.701496 
z"/>
<path fill="#B61A0D" opacity="1.000000" stroke="none" 
	d="
M143.174988,59.047958 
	C143.170853,49.661209 143.166702,40.274460 143.162003,30.415369 
	C143.748703,30.669424 144.849823,31.399244 144.845016,32.121693 
	C144.786530,40.898674 144.565247,49.674564 143.944153,58.757416 
	C143.502045,59.064091 143.175003,59.047958 143.174988,59.047958 
z"/>
<path fill="#AD1407" opacity="1.000000" stroke="none" 
	d="
M142.732819,59.166756 
	C143.175003,59.047958 143.502045,59.064091 143.663147,59.075554 
	C143.868484,60.004330 143.912735,60.921642 143.965546,62.185509 
	C141.293152,62.573181 138.612228,62.614292 135.485992,62.174545 
	C135.072830,60.670712 135.104950,59.647732 135.137085,58.624756 
	C137.521591,58.845024 139.906113,59.065289 142.732819,59.166756 
z"/>
<path fill="#AC1305" opacity="1.000000" stroke="none" 
	d="
M143.910629,65.849152 
	C143.776093,65.907349 143.584229,65.767731 143.343262,65.430504 
	C143.494781,65.354408 143.681152,65.493889 143.910629,65.849152 
z"/>
<path fill="#B32516" opacity="1.000000" stroke="none" 
	d="
M82.289078,64.660583 
	C82.520752,64.481133 82.912300,64.404243 83.585983,64.442207 
	C83.395065,64.625763 82.922005,64.694450 82.289078,64.660583 
z"/>
<path fill="#9D170A" opacity="1.000000" stroke="none" 
	d="
M102.099998,58.995903 
	C104.450005,58.834049 106.798241,59.059029 109.564583,59.542545 
	C109.973862,60.682880 109.965027,61.564678 109.956184,62.446476 
	C107.602333,62.519810 105.248482,62.593143 102.462097,62.569103 
	C102.052460,61.442062 102.075340,60.412395 102.099998,58.995903 
z"/>
<path fill="#A92519" opacity="1.000000" stroke="none" 
	d="
M110.293350,62.570148 
	C109.965027,61.564678 109.973862,60.682880 110.007248,59.471241 
	C110.031799,55.105286 110.031799,51.069172 110.031799,47.033054 
	C110.788948,47.040810 111.546089,47.048565 112.303238,47.056320 
	C112.303238,50.629345 112.303238,54.202374 112.196274,58.587975 
	C112.067078,60.415379 112.044846,61.430218 112.022621,62.445053 
	C111.558586,62.527977 111.094543,62.610897 110.293350,62.570148 
z"/>
<path fill="#AF2E20" opacity="1.000000" stroke="none" 
	d="
M135.217072,58.473465 
	C135.104950,59.647732 135.072830,60.670712 135.050140,62.077461 
	C133.307236,62.548138 131.554886,62.635036 129.382111,62.274788 
	C128.964691,60.976292 128.967682,60.124950 128.970688,59.273605 
	C129.800201,58.750999 130.629715,58.228394 131.679718,57.625870 
	C132.708588,57.620625 133.516968,57.695297 134.715302,57.904335 
	C135.105255,58.038692 135.297073,58.322174 135.217072,58.473465 
z"/>
<path fill="#AD1407" opacity="1.000000" stroke="none" 
	d="
M128.534103,59.258804 
	C128.967682,60.124950 128.964691,60.976292 128.959961,62.146355 
	C126.941246,62.530975 124.924286,62.596870 122.478233,62.229904 
	C122.025002,60.901794 122.000870,60.006538 121.976730,59.111282 
	C124.016991,59.155525 126.057259,59.199764 128.534103,59.258804 
z"/>
<path fill="#9D170A" opacity="1.000000" stroke="none" 
	d="
M112.440323,62.551865 
	C112.044846,61.430218 112.067078,60.415379 112.096886,59.019283 
	C113.789223,58.878582 115.473976,59.119137 117.576828,59.760422 
	C117.991470,60.902596 117.988022,61.644039 117.984573,62.385490 
	C116.275726,62.476551 114.566872,62.567616 112.440323,62.551865 
z"/>
<path fill="#AF2E20" opacity="1.000000" stroke="none" 
	d="
M121.962242,58.681988 
	C122.000870,60.006538 122.025002,60.901794 122.056519,62.133202 
	C121.590591,62.551804 121.117279,62.634251 120.305061,62.256737 
	C119.984612,60.895176 120.003067,59.993568 120.021515,59.091961 
	C120.520065,57.048225 121.018608,55.004490 121.777412,53.462875 
	C122.007690,55.394226 121.977722,56.823456 121.962242,58.681988 
z"/>
<path fill="#AD1407" opacity="1.000000" stroke="none" 
	d="
M119.682289,59.187088 
	C120.003067,59.993568 119.984612,60.895176 119.960648,62.133759 
	C119.508705,62.529125 119.062263,62.587517 118.300194,62.515694 
	C117.988022,61.644039 117.991470,60.902596 117.990250,59.883591 
	C118.438072,59.498096 118.890564,59.390156 119.682289,59.187088 
z"/>
<path fill="#FBF6F6" opacity="1.000000" stroke="none" 
	d="
M99.229034,58.864571 
	C95.973564,59.530605 92.889954,59.644379 89.828552,59.968227 
	C85.840637,60.390087 81.217804,56.580078 81.040520,52.400059 
	C80.892807,48.917324 80.991020,45.424160 80.922768,41.475319 
	C81.289673,37.492870 81.714127,33.970722 82.129807,30.521355 
	C96.353722,28.121492 98.566978,29.341648 99.151077,40.117538 
	C96.930855,40.117538 94.722984,40.117538 92.249512,40.117538 
	C91.944870,38.178890 91.630577,36.178844 91.316292,34.178799 
	C90.675529,34.194813 90.034767,34.210827 89.394005,34.226841 
	C89.499588,40.776451 88.205666,47.281624 90.469894,54.011436 
	C90.777809,54.132870 91.017464,54.180393 91.017464,54.180393 
	C91.017464,54.180393 90.713165,54.277390 90.713165,54.277390 
	C90.713165,50.829582 90.713165,47.381775 90.713165,43.627182 
	C93.582962,43.627182 96.148003,43.627182 99.410774,43.627182 
	C99.410774,48.606110 99.410774,53.505920 99.229034,58.864571 
z"/>
<path fill="#AA3021" opacity="1.000000" stroke="none" 
	d="
M112.045410,25.364927 
	C112.989571,26.117229 113.932991,27.217451 114.814331,28.669079 
	C113.849724,27.917938 112.947205,26.815393 112.045410,25.364927 
z"/>
<path fill="#AA3021" opacity="1.000000" stroke="none" 
	d="
M105.137115,25.064623 
	C105.742729,24.618135 106.547012,24.401314 107.666840,24.217766 
	C107.100189,24.598789 106.217979,24.946539 105.137115,25.064623 
z"/>
<path fill="#AA3021" opacity="1.000000" stroke="none" 
	d="
M111.694382,37.993660 
	C111.835594,38.654678 111.686256,39.311619 111.536911,39.968559 
	C111.057701,39.557720 110.578484,39.146877 110.170380,38.363670 
	C110.628929,37.990730 111.016380,37.990154 111.694382,37.993660 
z"/>
<path fill="#AF2E20" opacity="1.000000" stroke="none" 
	d="
M120.195908,50.756279 
	C120.765556,50.552341 121.256004,50.777534 122.185867,51.706253 
	C121.789085,52.001652 120.952896,51.593533 120.195908,50.756279 
z"/>
<path fill="#AA1B0D" opacity="1.000000" stroke="none" 
	d="
M122.390640,52.340057 
	C123.307457,52.566509 123.659325,52.635048 124.011200,52.703583 
	C123.613091,53.146496 123.214973,53.589409 122.386383,54.047585 
	C121.912506,53.435944 121.869102,52.809040 122.390640,52.340057 
z"/>
<path fill="#A52B1F" opacity="1.000000" stroke="none" 
	d="
M90.761887,54.266647 
	C90.713165,54.277390 91.017464,54.180393 91.017464,54.180393 
	C91.017464,54.180393 90.777809,54.132870 90.816879,54.238834 
	C90.855949,54.344799 90.810616,54.255901 90.761887,54.266647 
z"/>
</svg>